<?xml version="1.0" encoding="UTF-8"?>
<svg id="Layer_1" xmlns="http://www.w3.org/2000/svg" version="1.1" viewBox="0 0 191.2 270.5">
  <!-- Generator: Adobe Illustrator 29.8.2, SVG Export Plug-In . SVG Version: 2.1.1 Build 3)  -->
  <path d="M96,138.2c0-2.4-33.3,20.5-47.1,17.2-13.9-3.6-26-30.3-20.1-45,7-20.2,28.2-17,47.2-13.6-31-21.7-33.8-24.5-20.3-59.9-1.6-65.4,31.3-26.8,44-5.4,12.8,25.2,16,46,18.9,67.8,4.8-22.5-6.8-62.2-19.9-77.5.5-7.5,6.8-24.3,18.9-21.4,7.4,1.2,14.4,29.7,13.9,28,5.3,22.3,1.3,42.5-4.4,74.8-1.6-3.4,4.6-1.1,6.9-3.2,2.6-11.5,10.1-28.9,23-28.1,1.4,3.1-3.1,5.3-5.7,5.2-7.2,1.4-13.5,16.2-13.4,21.4,7.9-17.9,37.5-24.5,27.5-15.6-12.7,7.6-13.7-1.8-26.6,18.8,6.6,7-3.1,15.2-8.7,11.6,2.7,7.7-8.5,14.1-13.7,18.1-6.4,5.1-15.6,32.8-29.5,30.5-4.1-6,8.9-22.1,8.9-23.6Z" fill="#00a79d"/>
  <path d="M82.3,150.4c-18.2,14.8-53.6,28.3-69.8,45.4-28.3,30.4-4.9,75.8,36.8,67,23.9-4.8,64.2-30.5,91.1-10.9-17.3-15.9-30.6-15.3-64.6-3.7-27.3,10-54.1,14.8-64.8-9.4-8.9-23.4,4.2-36.7,18.6-47.4,3.4-3.3,47.5-22.4,52.7-41Z" fill="#00a79d"/>
  <path d="M181.1,189.6c-8.7-44.3-65.3-29.5-57.4,11.7,9.4,17.7,18.9,35.5,28.3,53.2,6.7-16.7,32.4-50,29.1-65ZM152.8,207.1c-19.4,0-19.4-29.5,0-29.6,19.4,0,19.3,29.5,0,29.6Z" fill="#00a79d"/>
  <path d="M185.7,254.6c.7,13.4-68.4,13.4-67.6,0-.7-13.4,68.4-13.4,67.6,0Z" fill="none" opacity=".5" stroke="#00a79d" stroke-miterlimit="10" stroke-width="11"/>
</svg>