<svg xmlns="http://www.w3.org/2000/svg" xmlns:xlink="http://www.w3.org/1999/xlink" viewBox="0 0 293.4 276.5"><defs><linearGradient id="b" x1="155.1" x2="293.6" y1="151" y2="151" data-name="Orange, Yellow" gradientUnits="userSpaceOnUse"><stop offset="0" stop-color="#fff33b"/><stop offset="0" stop-color="#fee62d"/><stop offset=".1" stop-color="#fdd51b"/><stop offset=".2" stop-color="#fdca0f"/><stop offset=".3" stop-color="#fdc70c"/><stop offset=".7" stop-color="#f3903f"/><stop offset=".9" stop-color="#ed683c"/><stop offset="1" stop-color="#e93e3a"/></linearGradient><linearGradient id="a" x1="202.2" x2="159.8" y1="242" y2="199.7" gradientUnits="userSpaceOnUse"><stop offset="0" stop-color="#39b54a"/><stop offset="1" stop-color="#3c4b45"/></linearGradient><linearGradient xlink:href="#a" id="c" x1="215.1" x2="188.9" y1="239.2" y2="212.9"/><linearGradient xlink:href="#a" id="d" x1="229.8" x2="212" y1="232.5" y2="214.7"/><linearGradient xlink:href="#a" id="e" x1="240.4" x2="218" y1="218.6" y2="196.2"/><linearGradient xlink:href="#a" id="f" x1="237" x2="210.6" y1="203.4" y2="177"/><linearGradient xlink:href="#a" id="g" x1="224.5" x2="205.2" y1="186.4" y2="167.1"/><linearGradient xlink:href="#a" id="h" x1="194.5" x2="181.9" y1="170.8" y2="158.3"/><linearGradient xlink:href="#a" id="i" x1="207" x2="171.1" y1="208.3" y2="172.4"/><linearGradient xlink:href="#a" id="j" x1="232" x2="196.5" y1="157.5" y2="122"/><linearGradient xlink:href="#a" id="k" x1="244" x2="220.7" y1="130.2" y2="106.9"/><linearGradient xlink:href="#a" id="l" x1="246.9" x2="232.4" y1="105.2" y2="90.7"/><linearGradient xlink:href="#a" id="m" x1="265.2" x2="257.9" y1="83.4" y2="76.1"/><linearGradient xlink:href="#a" id="n" x1="267.9" x2="258.1" y1="72.8" y2="62.9"/><linearGradient xlink:href="#a" id="o" x1="262" x2="254.2" y1="60.8" y2="53"/><linearGradient xlink:href="#a" id="p" x1="226.7" x2="222.2" y1="74.1" y2="69.5"/><linearGradient xlink:href="#a" id="q" x1="238.5" x2="234.9" y1="79.3" y2="75.7"/><linearGradient xlink:href="#a" id="r" x1="207.3" x2="195.7" y1="109.6" y2="98.1"/><linearGradient id="s" x1="189.4" x2="128.8" y1="129.8" y2="107.8" gradientUnits="userSpaceOnUse"><stop offset="0" stop-color="#373d3b"/><stop offset=".4" stop-color="#578f7a"/><stop offset=".6" stop-color="#487766"/><stop offset="1" stop-color="#424a48"/></linearGradient><filter id="t" width="144.2" height="260.9" x="94.2" y="1.4" filterUnits="userSpaceOnUse"><feOffset dx="7" dy="7"/><feGaussianBlur result="blur" stdDeviation="5"/><feFlood flood-color="#231f20" flood-opacity=".8"/><feComposite in2="blur" operator="in"/><feComposite in="SourceGraphic"/></filter><filter id="u" width="63.6" height="104.6" x="132.6" y="167" filterUnits="userSpaceOnUse"><feOffset dx="7" dy="7"/><feGaussianBlur result="blur1" stdDeviation="5"/><feFlood flood-color="#231f20" flood-opacity=".8"/><feComposite in2="blur1" operator="in"/><feComposite in="SourceGraphic"/></filter></defs><path fill="none" stroke="#2bb673" stroke-miterlimit="10" stroke-width="10" d="M138.2 135.2c-13.1-35.9-47.8-70.4-84.4-87.4a54 54 0 0 0-28.4-7.6c-38.9.6-12.1 41.8-2.7 64.3 4.5 23.1-1.4 47.7 29.2 52 13.2 2.9 22.4.2 22.8 2-6.6 5.2-32.3 12.1-37.6 36.6-6 27.5 23.2 56.9 38.8 63.2 28.3 13.4 41.1-10.7 57.7-43.8"/><path fill="none" stroke="url(#b)" stroke-miterlimit="10" stroke-width="10" d="M208.1 66.9C226 56.4 242.4 40.6 268 40.2c13.7-.7 23 7.6 20.1 22.1-.5 5.6-2 9.1-11.2 28.4-5.4 11.5-5.7 11.9-6.3 13.8-4.5 23.1 1.4 47.7-29.2 52-13.2 2.9-22.4.2-22.8 2 6.6 5.2 32.3 12.1 37.6 36.6 6 27.5-23.2 56.9-38.8 63.2-28.3 13.4-41.1-10.7-57.7-43.8"/><path fill="url(#a)" stroke="#8dc63f" stroke-miterlimit="10" stroke-width="3" d="M166.3 205.1c-6.2-19.5 5.7-8.9 11.4-2.5 4.9 5.4 6.3 9.1 15.8 29.7 4 9.6 9.2 17.4-1 13.2-8.6-1.7-25.2-33-26.1-40.5Z"/><path fill="url(#c)" stroke="#8dc63f" stroke-miterlimit="10" stroke-width="3" d="m191.5 210.3 13.6 31.3c17.1 7.2 4.9-21.7-1.9-26.5a25 25 0 0 0-11.7-4.9Z"/><path fill="url(#d)" stroke="#8dc63f" stroke-miterlimit="10" stroke-width="3" d="M212.8 213.9c-1.6 1.7 4.4 5.8 7.3 16.6.4 1.3.9 3.6 2.7 4.4 3.7.9 9.5-3.5 10-7-.3-5.4-18-16.3-20.1-13.9Z"/><path fill="url(#e)" stroke="#8dc63f" stroke-miterlimit="10" stroke-width="3" d="M214.8 199.4c1.4 6.9 6.6 8.1 13.1 12.2 3.3 2.6 4.1 4.5 7.9 6.2 5.5 2.7 6.9-1 6.5-5.2-.6-5.1-18.1-11.5-27.5-13.2Z"/><path fill="url(#f)" stroke="#8dc63f" stroke-miterlimit="10" stroke-width="3" d="M203.8 183.8c2.2 8.6 22 9.3 26.3 12.4 5.8 5.4 15.9 6.2 10.4-4.2-7.3-7.6-33.2-7-36.7-8.2Z"/><path fill="url(#g)" stroke="#8dc63f" stroke-miterlimit="10" stroke-width="3" d="M198.2 174.6c.2 1.3 4.5 0 14.6 2.3 5.9.8 12.7 2.8 18.4 2.7-.1-3.2-10.6-9.9-17.3-10.2-8-.7-16 3.4-15.7 5.2Z"/><path fill="url(#h)" stroke="#8dc63f" stroke-miterlimit="10" stroke-width="3" d="M175.8 164.5c4.7 7.4 19 3.5 24.9 0-3.9-3.3-21.7-5.7-24.9 0Z"/><path fill="url(#i)" stroke="#8dc63f" stroke-miterlimit="10" stroke-width="3" d="M168.1 175.4c-2 17.3 31.1 26.2 35.7 30.1.7.5 2.6 1.9 4.4 1.3 5.1-3.7.8-6.2-4.4-13.2-8.3-10.1-7.7-10.2-10-11.9-5.8-3.7-20.7-9.8-25.6-6.4Z"/><path fill="url(#j)" stroke="#8dc63f" stroke-miterlimit="10" stroke-width="3" d="M177 144.7c2.3 5.8 13 5.2 15.6 4.1 5.2-1.4 12.5-1.7 27.3-2.3 8.1-.9 32.5 1.7 31.1-12.9-2.9-3.3-20.4-2.2-26-3-11.8 0-10.4-2.1-19.8-1.7a39 39 0 0 0-19.4 5.2c-1.2.7-10 6.2-8.9 10.7Z"/><path fill="url(#k)" stroke="#8dc63f" stroke-miterlimit="10" stroke-width="3" d="m207 120.8 11.2-11.4c18 2 13.1-1.8 31.9.9 4.8.2 6 7.1 3.2 10.5-5.3 6.5-43.9-.9-46.4 0Z"/><path fill="url(#l)" stroke="#8dc63f" stroke-miterlimit="10" stroke-width="3" d="M224 102.6c-1.3-2.4 3.5-7.6 7.3-10.2 9.9-7.3 32.7-2.9 20.1 8.4a8 8 0 0 1-5.4.8c-12-1.4-20.4 3.9-21.9 1Z"/><path fill="url(#m)" stroke="#8dc63f" stroke-miterlimit="10" stroke-width="3" d="M254.8 79.3c1.6-3.4 12.6-3 13.4 0-.3 5.1-13.1 5.1-13.4 0Z"/><path fill="url(#n)" stroke="#8dc63f" stroke-miterlimit="10" stroke-width="3" d="M252.5 68.8c.5-3.4 21.1-4.4 20.9-1.6-.7 2-18.4 3.7-20.9 1.6Z"/><path fill="url(#o)" stroke="#8dc63f" stroke-miterlimit="10" stroke-width="3" d="M248.1 60.2c.3-3.9 16.1-14.5 20.1-6 0 1.1-1.6 2-7.5 3.7-8 2.3-12 3.4-12.6 2.3Z"/><path fill="url(#p)" stroke="#8dc63f" stroke-miterlimit="10" stroke-width="3" d="M232.1 66.8c-1.7-2.7-16.4 6.1-15.2 10.2 2.3 2.8 16.8-6.8 15.2-10.2Z"/><path fill="url(#q)" stroke="#8dc63f" stroke-miterlimit="10" stroke-width="3" d="M232.2 80.1c-.8-2.9 6.6-7.5 8.4-5.8 2 2.8-5.8 9.1-8.4 5.8Z"/><path fill="none" stroke="#2bb673" stroke-linecap="round" stroke-miterlimit="10" stroke-width="10" d="M147.8 134.7c2.1-19-14-61.2-35.7-76.1"/><path fill="url(#r)" stroke="#8dc63f" stroke-miterlimit="10" stroke-width="3" d="M198.9 94.9c6.5-6.1 21.9-12.8 21.4-1.2-.4 3-2.7 5-3.6 5.9-6.9 6.6-16.4 19.3-27.5 24.4"/><path fill="url(#s)" stroke="#39b54a" stroke-linejoin="round" stroke-width="5" d="M150.1 237.8c34-108.6 70-178.7 62.6-211.6-5.1-16.2-15.6-20.2-25.8-3.3-6.6 9.6-4.8 14.1-9.7 26.1.6 2.5-28.9 40.9-29.5 49.6a46 46 0 0 0 13.7 38.7c-32.5-14.1-58.9 21.7-56.5 47.1 0 8.2 0 17.2 5.9 22.1 14 7 37.5 5.7 39.2 31.5Z" filter="url(#t)"/><path fill="none" stroke="#39b54a" stroke-miterlimit="10" stroke-width="5" d="M142.5 219.7c2.1 2.1 6.8 7.4 7.7 18.1l21.4-61.7" filter="url(#u)"/></svg>