<?xml version="1.0" encoding="UTF-8"?>
<svg id="Layer_1" xmlns="http://www.w3.org/2000/svg" version="1.1" xmlns:xlink="http://www.w3.org/1999/xlink" viewBox="0 0 340.3 340.3">
  <!-- Generator: Adobe Illustrator 29.8.2, SVG Export Plug-In . SVG Version: 2.1.1 Build 3)  -->
  <defs>
    <linearGradient id="Orange_Yellow" data-name="Orange, Yellow" x1="179.7" y1="194.1" x2="313.3" y2="194.1" gradientUnits="userSpaceOnUse">
      <stop offset="0" stop-color="#fff33b"/>
      <stop offset="0" stop-color="#fee62d"/>
      <stop offset=".1" stop-color="#fdd51b"/>
      <stop offset=".2" stop-color="#fdca0f"/>
      <stop offset=".3" stop-color="#fdc70c"/>
      <stop offset=".7" stop-color="#f3903f"/>
      <stop offset=".9" stop-color="#ed683c"/>
      <stop offset="1" stop-color="#e93e3a"/>
    </linearGradient>
    <linearGradient id="linear-gradient" x1="224.5" y1="284.8" x2="182.1" y2="242.4" gradientUnits="userSpaceOnUse">
      <stop offset="0" stop-color="#39b54a"/>
      <stop offset="1" stop-color="#3c4b45"/>
    </linearGradient>
    <linearGradient id="linear-gradient1" x1="237.6" y1="282.1" x2="211.3" y2="255.8" xlink:href="#linear-gradient"/>
    <linearGradient id="linear-gradient2" x1="252.2" y1="275.3" x2="234.5" y2="257.6" xlink:href="#linear-gradient"/>
    <linearGradient id="linear-gradient3" x1="262.7" y1="261.5" x2="240.3" y2="239.1" xlink:href="#linear-gradient"/>
    <linearGradient id="linear-gradient4" x1="259.5" y1="246.3" x2="233" y2="219.8" xlink:href="#linear-gradient"/>
    <linearGradient id="linear-gradient5" x1="246.9" y1="229.3" x2="227.6" y2="210" xlink:href="#linear-gradient"/>
    <linearGradient id="linear-gradient6" x1="216.8" y1="213.8" x2="204.1" y2="201.1" xlink:href="#linear-gradient"/>
    <linearGradient id="linear-gradient7" x1="229.5" y1="251.2" x2="193.5" y2="215.2" xlink:href="#linear-gradient"/>
    <linearGradient id="linear-gradient8" x1="254.4" y1="200.3" x2="218.9" y2="164.9" xlink:href="#linear-gradient"/>
    <linearGradient id="linear-gradient9" x1="266.4" y1="173.1" x2="243.1" y2="149.8" xlink:href="#linear-gradient"/>
    <linearGradient id="linear-gradient10" x1="269.5" y1="148.2" x2="254.9" y2="133.5" xlink:href="#linear-gradient"/>
    <linearGradient id="linear-gradient11" x1="287.6" y1="126.1" x2="280.3" y2="118.8" xlink:href="#linear-gradient"/>
    <linearGradient id="linear-gradient12" x1="290.3" y1="115.7" x2="280.4" y2="105.9" xlink:href="#linear-gradient"/>
    <linearGradient id="linear-gradient13" x1="284.5" y1="103.7" x2="276.6" y2="95.8" xlink:href="#linear-gradient"/>
    <linearGradient id="linear-gradient14" x1="249.1" y1="117" x2="244.6" y2="112.5" xlink:href="#linear-gradient"/>
    <linearGradient id="linear-gradient15" x1="260.9" y1="122.3" x2="257.3" y2="118.6" xlink:href="#linear-gradient"/>
    <linearGradient id="linear-gradient16" x1="229.8" y1="152.6" x2="218.2" y2="140.9" xlink:href="#linear-gradient"/>
    <linearGradient id="linear-gradient17" x1="211.9" y1="172.6" x2="151.2" y2="150.5" gradientUnits="userSpaceOnUse">
      <stop offset="0" stop-color="#373d3b"/>
      <stop offset=".4" stop-color="#578f7a"/>
      <stop offset=".6" stop-color="#487766"/>
      <stop offset="1" stop-color="#424a48"/>
    </linearGradient>
    <filter id="drop-shadow-1" x="116.8" y="44.1" width="145" height="261.1" filterUnits="userSpaceOnUse">
      <feOffset dx="7" dy="7"/>
      <feGaussianBlur result="blur" stdDeviation="5"/>
      <feFlood flood-color="#231f20" flood-opacity=".9"/>
      <feComposite in2="blur" operator="in"/>
      <feComposite in="SourceGraphic"/>
    </filter>
  </defs>
  <circle cx="170.2" cy="170.2" r="167.7" fill="none" stroke="#2bb673" stroke-miterlimit="10" stroke-width="5"/>
  <path d="M160.6,178c-5.6-13.6-14.4-29.9-28.1-45.7-17.3-19.9-33.5-29-56.3-41.7-4.1-2.3-14.7-8-28.4-7.6-5,.2-12.7.5-17.2,6-4,4.8-3.4,11.2-2.9,16.1.5,5.6,2,9.1,11.2,28.4,5.4,11.5,5.7,11.9,6.3,13.8,2.7,9.4.7,12.4,2.9,24.1,1.7,8.9,2.6,13.7,6.5,18.3,5.5,6.5,13.5,8.2,19.9,9.6,13.2,2.9,22.4.2,22.8,2,.6,2.2-13.9,4.3-25.7,16.3-2.8,2.9-9.5,9.8-11.8,20.3-3.2,14.1,3.4,26,7.8,34.2,9.7,17.7,24,25.3,31,29,4.9,2.6,9.1,4.1,14.1,4,0,0,7.1-.1,14.6-4.9,7.8-4.9,18.4-20.3,29-42.9" fill="none" stroke="#2bb673" stroke-miterlimit="10" stroke-width="5"/>
  <path d="M230.5,109.8c9.4-6.8,19.6-12.5,31.6-19.2,4.1-2.3,14.7-8,28.4-7.6,5,.2,12.7.5,17.2,6,4,4.8,3.4,11.2,2.9,16.1-.5,5.6-2,9.1-11.2,28.4-5.4,11.5-5.7,11.9-6.3,13.8-2.7,9.4-.7,12.4-2.9,24.1-1.7,8.9-2.6,13.7-6.5,18.3-5.5,6.5-13.5,8.2-19.9,9.6-13.2,2.9-22.4.2-22.8,2-.6,2.2,13.9,4.3,25.7,16.3,2.8,2.9,9.5,9.8,11.8,20.3,3.2,14.1-3.4,26-7.8,34.2-9.7,17.7-24,25.3-31,29-4.9,2.6-9.1,4.1-14.1,4,0,0-7.1-.1-14.6-4.9-7.8-4.9-18.4-20.3-29-42.9" fill="none" stroke="url(#Orange_Yellow)" stroke-miterlimit="10" stroke-width="5"/>
  <path d="M188.7,247.9c-1.2-4.5-2.7-10-.9-11.1,2.8-1.7,11.5,7.8,12.3,8.7,4.9,5.4,6.3,9.1,15.8,29.7,3.5,7.7,5.9,12.6,4.2,14.1-.3.2-1.3,1-5.3-.8-4.9-2.3-8.9-6.2-15.8-17.7-6.5-10.9-8.9-17.5-10.4-22.8Z" fill="url(#linear-gradient)" stroke="#8dc63f" stroke-miterlimit="10" stroke-width="3"/>
  <path d="M213.9,253.1c4.5,10.4,9,20.9,13.6,31.3,1.1.4,5.6,2,7.7,0,2.2-2,.7-6.5-.9-11.4-1.9-5.8-3.6-10.9-8.8-15.1-4.1-3.3-8.6-4.4-11.7-4.9Z" fill="url(#linear-gradient1)" stroke="#8dc63f" stroke-miterlimit="10" stroke-width="3"/>
  <path d="M235.2,256.8c-1.6,1.7,4.4,5.8,7.3,16.6.4,1.3.9,3.6,2.7,4.4,2.2.9,5-1.2,6.4-2.2,1.5-1.1,3.6-2.7,3.7-4.9,0-2.1-1.6-3.7-3-4.9-4.1-3.5-14.9-11.4-17-9Z" fill="url(#linear-gradient2)" stroke="#8dc63f" stroke-miterlimit="10" stroke-width="3"/>
  <path d="M237.2,242.2c.4,1.5,1.3,3.9,3.2,6,3,3.4,5.1,2.5,9.9,6.2,3.3,2.6,4.1,4.5,7.9,6.2,2.8,1.3,3.9,1,4.5.7,1.8-.9,2.4-3.8,2-5.9-.3-1.5-1.5-4.1-11.2-8.2-3.7-1.6-9.2-3.6-16.2-5Z" fill="url(#linear-gradient3)" stroke="#8dc63f" stroke-miterlimit="10" stroke-width="3"/>
  <path d="M226.2,226.7c.8,1.6,2.3,3.8,4.7,5.5,2.2,1.6,3.8,1.7,8.4,2.8,7.5,1.8,11.2,2.8,13.2,4,3,1.8,4.9,4.1,8.4,4,1.7,0,2.4-.6,2.7-.8,1.6-1.6.9-5.2-.7-7.4-1.8-2.5-4.6-3.3-6-3.7-10-2.6-27.9-4.3-30.6-4.5Z" fill="url(#linear-gradient4)" stroke="#8dc63f" stroke-miterlimit="10" stroke-width="3"/>
  <path d="M220.6,217.5c.2,1.3,4.5,0,14.6,2.3,5.2,1.2,10.5,1.6,15.8,2.7,1,.2,2.3.5,2.6,0,.6-1.1-4-5.4-9.2-7.9-1.5-.7-4.3-2-8.1-2.3-8-.7-16,3.4-15.7,5.2Z" fill="url(#linear-gradient5)" stroke="#8dc63f" stroke-miterlimit="10" stroke-width="3"/>
  <path d="M198.2,207.4c-.1,1.6,4,3.3,6.5,3.9,4.1,1,7.7,0,10.9-.8,3.1-.8,5.6-2,7.5-3-3.2-1.7-8.4-3.9-14.7-3.5-4.2.2-10.1,1.6-10.2,3.5Z" fill="url(#linear-gradient6)" stroke="#8dc63f" stroke-miterlimit="10" stroke-width="3"/>
  <path d="M190.5,218.3c-1.4,1.8.3,5.2,1.2,7,2,4,4.9,6.4,7.5,8.4,14.5,10.9,20.8,10.3,27,14.7.7.5,2.6,1.9,4.4,1.3,1.4-.5,2-1.9,2-2,1-2.5-1.7-5.5-6.4-11.2-8.3-10.1-7.7-10.2-10-11.9-4-2.9-7.5-3.9-12.4-5.4-5.5-1.6-11.5-3.4-13.3-1Z" fill="url(#linear-gradient7)" stroke="#8dc63f" stroke-miterlimit="10" stroke-width="3"/>
  <path d="M199.4,187.6c.6,2.4,3.9,3.6,5.2,4.1,4.6,1.6,8.9.4,10.4,0,5.2-1.4,12.5-1.7,27.3-2.3,6.6-.3,12.1,0,20.3-1.7,2.8-.6,7-1.6,9.5-5.1.2-.3,2.6-3.8,1.3-6-1.1-1.8-4.2-1.8-5.7-1.8-6.8,0-13.5-1.2-20.3-1.2-11.8,0-10.4-2.1-19.8-1.7-11.6.6-17.7,4.1-19.4,5.2-1.2.7-10,6.2-8.9,10.7Z" fill="url(#linear-gradient8)" stroke="#8dc63f" stroke-miterlimit="10" stroke-width="3"/>
  <path d="M229.3,163.7c3.7-3.8,7.5-7.6,11.2-11.4,8.5.9,14.6.6,18.9,0,0,0,4.6-.6,13,.9.9.2,2.2.4,3.2,1.5,2.1,2.2,1.9,6.6,0,9-2.3,3-7,2.8-9.9,2.7-15.1-.7-30.2-2.1-36.5-2.7Z" fill="url(#linear-gradient9)" stroke="#8dc63f" stroke-miterlimit="10" stroke-width="3"/>
  <path d="M246.4,145.5c-1.3-2.4,3.5-7.6,7.3-10.2,5.9-4.1,12-3.6,14.2-3.3,3.3.3,8.2.8,9.4,4,1,2.6-.9,6.2-3.5,7.7-2.1,1.3-4.4,1-5.4.8-12-1.4-20.4,3.9-21.9,1Z" fill="url(#linear-gradient10)" stroke="#8dc63f" stroke-miterlimit="10" stroke-width="3"/>
  <path d="M277.2,122.2c.2-1.6,3.9-2.2,5.7-2.3,3.1-.2,7.5.6,7.7,2.3.2,1.6-3.3,4-6.7,4-3.4,0-6.9-2.4-6.7-4Z" fill="url(#linear-gradient11)" stroke="#8dc63f" stroke-miterlimit="10" stroke-width="3"/>
  <path d="M274.9,111.6c-.1-.9,4.5-2.6,9-3.2,5.8-.7,11.9.5,11.9,1.6,0,1.1-7,2.2-11.9,2.4-2.7.1-8.9.2-9-.8Z" fill="url(#linear-gradient12)" stroke="#8dc63f" stroke-miterlimit="10" stroke-width="3"/>
  <path d="M270.5,103.1c-.7-1.3,3.9-5.2,8-7.2,2.1-1.1,6.1-3,9.5-1.4.3.1,2.6,1.2,2.5,2.6,0,1.1-1.6,2-7.5,3.7-8,2.3-12,3.4-12.6,2.3Z" fill="url(#linear-gradient13)" stroke="#8dc63f" stroke-miterlimit="10" stroke-width="3"/>
  <path d="M254.5,109.6c-.9-1.3-6.5.5-10.5,3.7-2.5,2-5.4,5.4-4.7,6.5.8,1.2,5.8-.3,9.4-2.8,3.3-2.3,6.7-6.2,5.9-7.4Z" fill="url(#linear-gradient14)" stroke="#8dc63f" stroke-miterlimit="10" stroke-width="3"/>
  <path d="M254.6,123c-.6-1.1,1.3-3.2,2.6-4.2,1.9-1.5,5-2.7,5.9-1.7.9,1-.6,4.5-3.2,5.8-1.9,1-4.7,1.1-5.2,0Z" fill="url(#linear-gradient15)" stroke="#8dc63f" stroke-miterlimit="10" stroke-width="3"/>
  <path d="M221.3,137.8c4.7-4.2,7.6-5.4,9.5-6,2.1-.7,8.2-2.7,10.7,0,1.6,1.7,1.2,4.4,1.2,4.8-.4,3-2.7,5-3.6,5.9-8.4,7.4-6.4,8.8-18.5,18.4-4.2,3.3-6.9,5.1-9.1,6" fill="url(#linear-gradient16)" stroke="#8dc63f" stroke-miterlimit="10" stroke-width="3"/>
  <path d="M172.5,280.7c33.7-96.6,57.2-167.8,62.6-186.2.9-3,4.2-13.9,0-25.5-1.3-3.5-5-13.7-11.7-14.4-6-.6-11.1,6.8-14.1,11.1-6.6,9.6-4.8,14.1-9.7,26.1-1.5,3.6-7,11.9-18.1,28.5-7.7,11.6-10.2,14.9-11.4,21.1-1.7,9.3,1.1,17.2,2.3,20.8,3.2,8.9,8.3,14.9,11.4,17.9-3.4-1.4-12.8-4.8-24.1-1.8-11.8,3.1-18.2,11.1-21.4,15.1-10.7,13.3-10.9,27.9-10.9,33.8,0,8.2,0,17.2,5.9,22.1,3.9,3.2,6.6,1.7,17.7,6,6.5,2.5,10.3,4,13.7,7.4,2.1,2.1,6.8,7.4,7.7,18.1Z" fill="url(#linear-gradient17)" filter="url(#drop-shadow-1)" stroke="#39b54a" stroke-linejoin="round" stroke-width="5"/>
  <path d="M164.9,262.6c2.1,2.1,6.8,7.4,7.7,18.1,33.7-96.6,57.2-167.8,62.6-186.2" fill="none" stroke="#39b54a" stroke-miterlimit="10" stroke-width="5"/>
  <path d="M170.2,177.6c-.2-10.3-1.9-30.5-14.5-51.4-6.9-11.4-14.9-19.5-21.2-24.8" fill="none" stroke="#2bb673" stroke-linecap="round" stroke-miterlimit="10" stroke-width="5"/>
</svg>